<svg width="304" height="315" viewBox="0 0 304 315" fill="none" xmlns="http://www.w3.org/2000/svg">
<g filter="url(#filter0_d)">
<path d="M12 31C12 24.3726 17.3726 19 24 19H140.615C141.179 19 141.716 18.7623 142.095 18.3453L150.02 9.62787C150.814 8.755 152.186 8.755 152.98 9.62787L160.905 18.3453C161.284 18.7623 161.821 19 162.385 19H280C286.627 19 292 24.3726 292 31V287C292 293.627 286.627 299 280 299H24C17.3726 299 12 293.627 12 287V31Z" fill="white"/>
</g>
<path d="M60.6719 281.93C59.3854 281.56 58.4479 281.107 57.8594 280.57C57.276 280.029 56.9844 279.362 56.9844 278.57C56.9844 277.674 57.3411 276.935 58.0547 276.352C58.7734 275.763 59.7057 275.469 60.8516 275.469C61.6328 275.469 62.3281 275.62 62.9375 275.922C63.5521 276.224 64.026 276.641 64.3594 277.172C64.6979 277.703 64.8672 278.284 64.8672 278.914H63.3594C63.3594 278.227 63.1406 277.688 62.7031 277.297C62.2656 276.901 61.6484 276.703 60.8516 276.703C60.112 276.703 59.5339 276.867 59.1172 277.195C58.7057 277.518 58.5 277.969 58.5 278.547C58.5 279.01 58.6953 279.404 59.0859 279.727C59.4818 280.044 60.151 280.336 61.0938 280.602C62.0417 280.867 62.7812 281.161 63.3125 281.484C63.849 281.802 64.2448 282.174 64.5 282.602C64.7604 283.029 64.8906 283.531 64.8906 284.109C64.8906 285.031 64.5312 285.771 63.8125 286.328C63.0938 286.88 62.1328 287.156 60.9297 287.156C60.1484 287.156 59.4193 287.008 58.7422 286.711C58.0651 286.409 57.5417 285.997 57.1719 285.477C56.8073 284.956 56.625 284.365 56.625 283.703H58.1328C58.1328 284.391 58.3854 284.935 58.8906 285.336C59.401 285.732 60.0807 285.93 60.9297 285.93C61.7214 285.93 62.3281 285.768 62.75 285.445C63.1719 285.122 63.3828 284.682 63.3828 284.125C63.3828 283.568 63.1875 283.138 62.7969 282.836C62.4062 282.529 61.6979 282.227 60.6719 281.93ZM69.9844 285.977C70.5 285.977 70.9505 285.82 71.3359 285.508C71.7214 285.195 71.9349 284.805 71.9766 284.336H73.3438C73.3177 284.82 73.151 285.281 72.8438 285.719C72.5365 286.156 72.125 286.505 71.6094 286.766C71.099 287.026 70.5573 287.156 69.9844 287.156C68.8333 287.156 67.9167 286.773 67.2344 286.008C66.5573 285.237 66.2188 284.185 66.2188 282.852V282.609C66.2188 281.786 66.3698 281.055 66.6719 280.414C66.974 279.773 67.4062 279.276 67.9688 278.922C68.5365 278.568 69.2057 278.391 69.9766 278.391C70.9245 278.391 71.7109 278.674 72.3359 279.242C72.9661 279.81 73.3021 280.547 73.3438 281.453H71.9766C71.9349 280.906 71.7266 280.458 71.3516 280.109C70.9818 279.755 70.5234 279.578 69.9766 279.578C69.2422 279.578 68.6719 279.844 68.2656 280.375C67.8646 280.901 67.6641 281.664 67.6641 282.664V282.938C67.6641 283.911 67.8646 284.661 68.2656 285.188C68.6667 285.714 69.2396 285.977 69.9844 285.977ZM80.1875 287C80.1042 286.833 80.0365 286.536 79.9844 286.109C79.3125 286.807 78.5104 287.156 77.5781 287.156C76.7448 287.156 76.0599 286.922 75.5234 286.453C74.9922 285.979 74.7266 285.38 74.7266 284.656C74.7266 283.776 75.0599 283.094 75.7266 282.609C76.3984 282.12 77.3411 281.875 78.5547 281.875H79.9609V281.211C79.9609 280.706 79.8099 280.305 79.5078 280.008C79.2057 279.706 78.7604 279.555 78.1719 279.555C77.6562 279.555 77.224 279.685 76.875 279.945C76.526 280.206 76.3516 280.521 76.3516 280.891H74.8984C74.8984 280.469 75.0469 280.062 75.3438 279.672C75.6458 279.276 76.0521 278.964 76.5625 278.734C77.0781 278.505 77.6432 278.391 78.2578 278.391C79.2318 278.391 79.9948 278.635 80.5469 279.125C81.099 279.609 81.3854 280.279 81.4062 281.133V285.023C81.4062 285.799 81.5052 286.417 81.7031 286.875V287H80.1875ZM77.7891 285.898C78.2422 285.898 78.6719 285.781 79.0781 285.547C79.4844 285.312 79.7786 285.008 79.9609 284.633V282.898H78.8281C77.0573 282.898 76.1719 283.417 76.1719 284.453C76.1719 284.906 76.3229 285.26 76.625 285.516C76.9271 285.771 77.3151 285.898 77.7891 285.898ZM85.0391 278.547L85.0859 279.609C85.7318 278.797 86.5755 278.391 87.6172 278.391C89.4036 278.391 90.3047 279.398 90.3203 281.414V287H88.875V281.406C88.8698 280.797 88.7292 280.346 88.4531 280.055C88.1823 279.763 87.7578 279.617 87.1797 279.617C86.7109 279.617 86.2995 279.742 85.9453 279.992C85.5911 280.242 85.3151 280.57 85.1172 280.977V287H83.6719V278.547H85.0391ZM105.383 281.68C105.383 282.779 105.208 283.727 104.859 284.523C104.51 285.315 104.021 285.935 103.391 286.383L105.422 287.977L104.398 288.922L102 287.016C101.625 287.109 101.229 287.156 100.812 287.156C99.9167 287.156 99.1224 286.938 98.4297 286.5C97.737 286.057 97.1979 285.43 96.8125 284.617C96.4323 283.799 96.237 282.854 96.2266 281.781V280.961C96.2266 279.867 96.4167 278.901 96.7969 278.062C97.1771 277.224 97.7135 276.583 98.4062 276.141C99.1042 275.693 99.901 275.469 100.797 275.469C101.714 275.469 102.518 275.69 103.211 276.133C103.909 276.576 104.445 277.214 104.82 278.047C105.195 278.875 105.383 279.844 105.383 280.953V281.68ZM103.883 280.945C103.883 279.607 103.615 278.576 103.078 277.852C102.547 277.122 101.786 276.758 100.797 276.758C99.8542 276.758 99.1094 277.12 98.5625 277.844C98.0208 278.562 97.7422 279.562 97.7266 280.844V281.68C97.7266 282.982 97.9974 284.008 98.5391 284.758C99.0859 285.508 99.8438 285.883 100.812 285.883C101.781 285.883 102.531 285.531 103.062 284.828C103.594 284.12 103.867 283.107 103.883 281.789V280.945ZM111.867 282.398H109.195V287H107.688V275.625H111.453C112.734 275.625 113.719 275.917 114.406 276.5C115.099 277.083 115.445 277.932 115.445 279.047C115.445 279.755 115.253 280.372 114.867 280.898C114.487 281.424 113.956 281.818 113.273 282.078L115.945 286.906V287H114.336L111.867 282.398ZM109.195 281.172H111.5C112.245 281.172 112.836 280.979 113.273 280.594C113.716 280.208 113.938 279.693 113.938 279.047C113.938 278.344 113.727 277.805 113.305 277.43C112.888 277.055 112.284 276.865 111.492 276.859H109.195V281.172ZM124.688 285.977C125.203 285.977 125.654 285.82 126.039 285.508C126.424 285.195 126.638 284.805 126.68 284.336H128.047C128.021 284.82 127.854 285.281 127.547 285.719C127.24 286.156 126.828 286.505 126.312 286.766C125.802 287.026 125.26 287.156 124.688 287.156C123.536 287.156 122.62 286.773 121.938 286.008C121.26 285.237 120.922 284.185 120.922 282.852V282.609C120.922 281.786 121.073 281.055 121.375 280.414C121.677 279.773 122.109 279.276 122.672 278.922C123.24 278.568 123.909 278.391 124.68 278.391C125.628 278.391 126.414 278.674 127.039 279.242C127.669 279.81 128.005 280.547 128.047 281.453H126.68C126.638 280.906 126.43 280.458 126.055 280.109C125.685 279.755 125.227 279.578 124.68 279.578C123.945 279.578 123.375 279.844 122.969 280.375C122.568 280.901 122.367 281.664 122.367 282.664V282.938C122.367 283.911 122.568 284.661 122.969 285.188C123.37 285.714 123.943 285.977 124.688 285.977ZM129.289 282.695C129.289 281.867 129.451 281.122 129.773 280.461C130.102 279.799 130.555 279.289 131.133 278.93C131.716 278.57 132.38 278.391 133.125 278.391C134.276 278.391 135.206 278.789 135.914 279.586C136.628 280.383 136.984 281.443 136.984 282.766V282.867C136.984 283.69 136.826 284.43 136.508 285.086C136.195 285.737 135.745 286.245 135.156 286.609C134.573 286.974 133.901 287.156 133.141 287.156C131.995 287.156 131.065 286.758 130.352 285.961C129.643 285.164 129.289 284.109 129.289 282.797V282.695ZM130.742 282.867C130.742 283.805 130.958 284.557 131.391 285.125C131.828 285.693 132.411 285.977 133.141 285.977C133.875 285.977 134.458 285.69 134.891 285.117C135.323 284.539 135.539 283.732 135.539 282.695C135.539 281.768 135.318 281.018 134.875 280.445C134.438 279.867 133.854 279.578 133.125 279.578C132.411 279.578 131.836 279.862 131.398 280.43C130.961 280.997 130.742 281.81 130.742 282.867ZM138.445 282.703C138.445 281.406 138.753 280.365 139.367 279.578C139.982 278.786 140.786 278.391 141.781 278.391C142.771 278.391 143.555 278.729 144.133 279.406V275H145.578V287H144.25L144.18 286.094C143.602 286.802 142.797 287.156 141.766 287.156C140.786 287.156 139.987 286.755 139.367 285.953C138.753 285.151 138.445 284.104 138.445 282.812V282.703ZM139.891 282.867C139.891 283.826 140.089 284.576 140.484 285.117C140.88 285.659 141.427 285.93 142.125 285.93C143.042 285.93 143.711 285.518 144.133 284.695V280.812C143.701 280.016 143.036 279.617 142.141 279.617C141.432 279.617 140.88 279.891 140.484 280.438C140.089 280.984 139.891 281.794 139.891 282.867ZM151.336 287.156C150.19 287.156 149.258 286.781 148.539 286.031C147.82 285.276 147.461 284.268 147.461 283.008V282.742C147.461 281.904 147.62 281.156 147.938 280.5C148.26 279.839 148.708 279.323 149.281 278.953C149.859 278.578 150.484 278.391 151.156 278.391C152.255 278.391 153.109 278.753 153.719 279.477C154.328 280.201 154.633 281.237 154.633 282.586V283.188H148.906C148.927 284.021 149.169 284.695 149.633 285.211C150.102 285.721 150.695 285.977 151.414 285.977C151.924 285.977 152.357 285.872 152.711 285.664C153.065 285.456 153.375 285.18 153.641 284.836L154.523 285.523C153.815 286.612 152.753 287.156 151.336 287.156ZM151.156 279.578C150.573 279.578 150.083 279.792 149.688 280.219C149.292 280.641 149.047 281.234 148.953 282H153.188V281.891C153.146 281.156 152.948 280.589 152.594 280.188C152.24 279.781 151.76 279.578 151.156 279.578ZM162.242 276.5V278.547H163.82V279.664H162.242V284.906C162.242 285.245 162.312 285.5 162.453 285.672C162.594 285.839 162.833 285.922 163.172 285.922C163.339 285.922 163.568 285.891 163.859 285.828V287C163.479 287.104 163.109 287.156 162.75 287.156C162.104 287.156 161.617 286.961 161.289 286.57C160.961 286.18 160.797 285.625 160.797 284.906V279.664H159.258V278.547H160.797V276.5H162.242ZM164.977 282.695C164.977 281.867 165.138 281.122 165.461 280.461C165.789 279.799 166.242 279.289 166.82 278.93C167.404 278.57 168.068 278.391 168.812 278.391C169.964 278.391 170.893 278.789 171.602 279.586C172.315 280.383 172.672 281.443 172.672 282.766V282.867C172.672 283.69 172.513 284.43 172.195 285.086C171.883 285.737 171.432 286.245 170.844 286.609C170.26 286.974 169.589 287.156 168.828 287.156C167.682 287.156 166.753 286.758 166.039 285.961C165.331 285.164 164.977 284.109 164.977 282.797V282.695ZM166.43 282.867C166.43 283.805 166.646 284.557 167.078 285.125C167.516 285.693 168.099 285.977 168.828 285.977C169.562 285.977 170.146 285.69 170.578 285.117C171.01 284.539 171.227 283.732 171.227 282.695C171.227 281.768 171.005 281.018 170.562 280.445C170.125 279.867 169.542 279.578 168.812 279.578C168.099 279.578 167.523 279.862 167.086 280.43C166.648 280.997 166.43 281.81 166.43 282.867ZM178.102 282.703C178.102 281.406 178.409 280.365 179.023 279.578C179.638 278.786 180.443 278.391 181.438 278.391C182.427 278.391 183.211 278.729 183.789 279.406V275H185.234V287H183.906L183.836 286.094C183.258 286.802 182.453 287.156 181.422 287.156C180.443 287.156 179.643 286.755 179.023 285.953C178.409 285.151 178.102 284.104 178.102 282.812V282.703ZM179.547 282.867C179.547 283.826 179.745 284.576 180.141 285.117C180.536 285.659 181.083 285.93 181.781 285.93C182.698 285.93 183.367 285.518 183.789 284.695V280.812C183.357 280.016 182.693 279.617 181.797 279.617C181.089 279.617 180.536 279.891 180.141 280.438C179.745 280.984 179.547 281.794 179.547 282.867ZM187.102 282.695C187.102 281.867 187.263 281.122 187.586 280.461C187.914 279.799 188.367 279.289 188.945 278.93C189.529 278.57 190.193 278.391 190.938 278.391C192.089 278.391 193.018 278.789 193.727 279.586C194.44 280.383 194.797 281.443 194.797 282.766V282.867C194.797 283.69 194.638 284.43 194.32 285.086C194.008 285.737 193.557 286.245 192.969 286.609C192.385 286.974 191.714 287.156 190.953 287.156C189.807 287.156 188.878 286.758 188.164 285.961C187.456 285.164 187.102 284.109 187.102 282.797V282.695ZM188.555 282.867C188.555 283.805 188.771 284.557 189.203 285.125C189.641 285.693 190.224 285.977 190.953 285.977C191.688 285.977 192.271 285.69 192.703 285.117C193.135 284.539 193.352 283.732 193.352 282.695C193.352 281.768 193.13 281.018 192.688 280.445C192.25 279.867 191.667 279.578 190.938 279.578C190.224 279.578 189.648 279.862 189.211 280.43C188.773 280.997 188.555 281.81 188.555 282.867ZM204.094 285.008L205.719 278.547H207.164L204.703 287H203.531L201.477 280.594L199.477 287H198.305L195.852 278.547H197.289L198.953 284.875L200.922 278.547H202.086L204.094 285.008ZM210.008 278.547L210.055 279.609C210.701 278.797 211.544 278.391 212.586 278.391C214.372 278.391 215.273 279.398 215.289 281.414V287H213.844V281.406C213.839 280.797 213.698 280.346 213.422 280.055C213.151 279.763 212.727 279.617 212.148 279.617C211.68 279.617 211.268 279.742 210.914 279.992C210.56 280.242 210.284 280.57 210.086 280.977V287H208.641V278.547H210.008ZM219.039 287H217.594V275H219.039V287ZM220.977 282.695C220.977 281.867 221.138 281.122 221.461 280.461C221.789 279.799 222.242 279.289 222.82 278.93C223.404 278.57 224.068 278.391 224.812 278.391C225.964 278.391 226.893 278.789 227.602 279.586C228.315 280.383 228.672 281.443 228.672 282.766V282.867C228.672 283.69 228.513 284.43 228.195 285.086C227.883 285.737 227.432 286.245 226.844 286.609C226.26 286.974 225.589 287.156 224.828 287.156C223.682 287.156 222.753 286.758 222.039 285.961C221.331 285.164 220.977 284.109 220.977 282.797V282.695ZM222.43 282.867C222.43 283.805 222.646 284.557 223.078 285.125C223.516 285.693 224.099 285.977 224.828 285.977C225.562 285.977 226.146 285.69 226.578 285.117C227.01 284.539 227.227 283.732 227.227 282.695C227.227 281.768 227.005 281.018 226.562 280.445C226.125 279.867 225.542 279.578 224.812 279.578C224.099 279.578 223.523 279.862 223.086 280.43C222.648 280.997 222.43 281.81 222.43 282.867ZM235.703 287C235.62 286.833 235.552 286.536 235.5 286.109C234.828 286.807 234.026 287.156 233.094 287.156C232.26 287.156 231.576 286.922 231.039 286.453C230.508 285.979 230.242 285.38 230.242 284.656C230.242 283.776 230.576 283.094 231.242 282.609C231.914 282.12 232.857 281.875 234.07 281.875H235.477V281.211C235.477 280.706 235.326 280.305 235.023 280.008C234.721 279.706 234.276 279.555 233.688 279.555C233.172 279.555 232.74 279.685 232.391 279.945C232.042 280.206 231.867 280.521 231.867 280.891H230.414C230.414 280.469 230.562 280.062 230.859 279.672C231.161 279.276 231.568 278.964 232.078 278.734C232.594 278.505 233.159 278.391 233.773 278.391C234.747 278.391 235.51 278.635 236.062 279.125C236.615 279.609 236.901 280.279 236.922 281.133V285.023C236.922 285.799 237.021 286.417 237.219 286.875V287H235.703ZM233.305 285.898C233.758 285.898 234.188 285.781 234.594 285.547C235 285.312 235.294 285.008 235.477 284.633V282.898H234.344C232.573 282.898 231.688 283.417 231.688 284.453C231.688 284.906 231.839 285.26 232.141 285.516C232.443 285.771 232.831 285.898 233.305 285.898ZM238.836 282.703C238.836 281.406 239.143 280.365 239.758 279.578C240.372 278.786 241.177 278.391 242.172 278.391C243.161 278.391 243.945 278.729 244.523 279.406V275H245.969V287H244.641L244.57 286.094C243.992 286.802 243.188 287.156 242.156 287.156C241.177 287.156 240.378 286.755 239.758 285.953C239.143 285.151 238.836 284.104 238.836 282.812V282.703ZM240.281 282.867C240.281 283.826 240.479 284.576 240.875 285.117C241.271 285.659 241.818 285.93 242.516 285.93C243.432 285.93 244.102 285.518 244.523 284.695V280.812C244.091 280.016 243.427 279.617 242.531 279.617C241.823 279.617 241.271 279.891 240.875 280.438C240.479 280.984 240.281 281.794 240.281 282.867Z" fill="#706F6F"/>
<path d="M111.125 47H43V115.125H111.125V47ZM97.5 101.5H56.625V60.625H97.5V101.5Z" fill="black"/>
<path d="M83.875 74.25H70.25V87.875H83.875V74.25Z" fill="black"/>
<path d="M192.875 47V115.125H261V47H192.875ZM247.375 101.5H206.5V60.625H247.375V101.5Z" fill="black"/>
<path d="M233.75 74.25H220.125V87.875H233.75V74.25Z" fill="black"/>
<path d="M43 265H111.125V196.875H43V265ZM56.625 210.5H97.5V251.375H56.625V210.5Z" fill="black"/>
<path d="M83.875 224.125H70.25V237.75H83.875V224.125Z" fill="black"/>
<path d="M179.25 47H152V60.625H179.25V47Z" fill="black"/>
<path d="M152 101.5H165.625V87.875H179.25V74.25H138.375V60.625H124.75V74.25V81.0625V87.875H152V101.5Z" fill="black"/>
<path d="M138.375 101.5H124.75V115.125H138.375V101.5Z" fill="black"/>
<path d="M179.25 115.125H165.625V128.75H124.75V142.375H179.25V115.125Z" fill="black"/>
<path d="M56.625 169.625H70.25V156H56.625V128.75H43V183.25H56.625V169.625Z" fill="black"/>
<path d="M83.875 128.75H70.25V142.375H83.875V128.75Z" fill="black"/>
<path d="M124.75 183.25H152V169.625H138.375V156H111.125V128.75H97.5V156H83.875V183.25H97.5V169.625H104.312H111.125H124.75V183.25Z" fill="black"/>
<path d="M179.25 156H165.625V183.25H179.25V156Z" fill="black"/>
<path d="M165.625 196.875H124.75V210.5H152V251.375H124.75V265H165.625V251.375H192.875V237.75H165.625V196.875Z" fill="black"/>
<path d="M138.375 224.125H124.75V237.75H138.375V224.125Z" fill="black"/>
<path d="M192.875 196.875H179.25V224.125H192.875V196.875Z" fill="black"/>
<path d="M247.375 224.125H206.5V265H220.125V237.75H247.375V224.125Z" fill="black"/>
<path d="M261 251.375H233.75V265H261V251.375Z" fill="black"/>
<path d="M261 196.875H247.375V210.5H261V196.875Z" fill="black"/>
<path d="M206.5 210.5H220.125V169.625H192.875V183.25H206.5V210.5Z" fill="black"/>
<path d="M233.75 142.375H220.125V128.75H206.5V142.375H192.875V156H247.375V142.375H261V128.75H233.75V142.375Z" fill="black"/>
<path d="M261 169.625H233.75V183.25H261V169.625Z" fill="black"/>
<defs>
<filter id="filter0_d" x="0" y="0.973145" width="304" height="314.027" filterUnits="userSpaceOnUse" color-interpolation-filters="sRGB">
<feFlood flood-opacity="0" result="BackgroundImageFix"/>
<feColorMatrix in="SourceAlpha" type="matrix" values="0 0 0 0 0 0 0 0 0 0 0 0 0 0 0 0 0 0 127 0"/>
<feOffset dy="4"/>
<feGaussianBlur stdDeviation="6"/>
<feColorMatrix type="matrix" values="0 0 0 0 0 0 0 0 0 0 0 0 0 0 0 0 0 0 0.2 0"/>
<feBlend mode="normal" in2="BackgroundImageFix" result="effect1_dropShadow"/>
<feBlend mode="normal" in="SourceGraphic" in2="effect1_dropShadow" result="shape"/>
</filter>
</defs>
</svg>
