<svg width="28" height="32" viewBox="0 0 28 32" fill="none" xmlns="http://www.w3.org/2000/svg">
<path d="M0.751307 9.02579V8.77579C0.751307 8.51324 0.751838 8.25125 0.752368 7.9896C0.753544 7.40962 0.754716 6.83129 0.750094 6.25215L0.751307 9.02579ZM0.751307 9.02579H0.80989M0.751307 9.02579H0.80989M0.80989 9.02579C0.816758 9.15838 0.823347 9.28809 0.827149 9.41998L0.80989 9.02579ZM25.8376 18.1029C25.5963 19.7344 25.2622 21.3421 24.6019 22.8654M25.8376 18.1029L26.0849 18.1395C25.8425 19.7789 25.5045 21.4118 24.8313 22.9649L24.8313 22.9649C24.058 24.7475 22.8011 26.0981 21.1701 27.1081C20.4793 27.5359 19.7578 27.9278 19.0439 28.3156C18.6225 28.5445 18.2037 28.7719 17.7954 29.0045L17.7953 29.0045C16.7826 29.5811 15.7966 30.1945 14.8532 30.8722L14.8532 30.8722C14.2066 31.3367 13.4102 31.3952 12.7567 30.9232L12.7566 30.9232C11.1942 29.7946 9.50772 28.8723 7.80473 27.9411C7.7022 27.885 7.59961 27.8289 7.49699 27.7727L7.49694 27.7727C6.3885 27.1656 5.3092 26.4816 4.40454 25.5386C3.33246 24.421 2.66765 23.0852 2.21768 21.6476L2.45627 21.573L2.21768 21.6476C1.75037 20.1546 1.5014 18.6222 1.32048 17.0889L1.32047 17.0889C1.01988 14.5375 0.899908 11.9769 0.827151 9.42007L24.6019 22.8654M25.8376 18.1029L26.0849 18.1395L25.8376 18.1029ZM24.6019 22.8654C23.8512 24.5959 22.6314 25.9091 21.0384 26.8956C20.3522 27.3206 19.6437 27.7053 18.9353 28.09C18.5125 28.3196 18.0897 28.5492 17.6716 28.7873C16.6534 29.3669 15.6596 29.9851 14.7074 30.6692C14.135 31.0803 13.457 31.1206 12.903 30.7205M24.6019 22.8654L12.903 30.7205M21.812 4.14864L21.812 4.14864C22.8424 4.29223 23.8812 4.32336 24.9315 4.31728L24.9316 4.31728C25.4736 4.31419 25.9466 4.50345 26.2824 4.84561C26.618 5.18754 26.8 5.66512 26.7925 6.20831C26.7925 6.20832 26.7925 6.20833 26.7925 6.20834L21.812 4.14864ZM21.812 4.14864C19.2509 3.79221 16.9517 2.84829 14.9502 1.20691M21.812 4.14864L14.9502 1.20691M23.1773 9.7804V9.77914V9.77502V9.7709V9.76678V9.76266V9.75855V9.75443V9.75031V9.74619V9.74207V9.73795V9.73383V9.72971V9.7256V9.72148V9.71736V9.71324V9.70912V9.705V9.70089V9.69677V9.69265V9.68853V9.68441V9.68029V9.67617V9.67206V9.66794V9.66382V9.6597V9.65558V9.65146V9.64735V9.64323V9.63911V9.63499V9.63087V9.62675V9.62264V9.61852V9.6144V9.61028V9.60616V9.60204V9.59793V9.59381V9.58969V9.58557V9.58145V9.57734V9.57322V9.5691V9.56498V9.56086V9.55675V9.55263V9.54851V9.54439V9.54027V9.53615V9.53204V9.52792V9.5238V9.51968V9.51556V9.51145V9.50733V9.50321V9.49909V9.49497V9.49085V9.48674V9.48262V9.4785V9.47438V9.47026V9.46615V9.46203V9.45791V9.45379V9.44968V9.44556V9.44144V9.43732V9.4332V9.42909V9.42497V9.42085V9.41673V9.41261V9.4085V9.40438V9.40026V9.39614V9.39202V9.38791V9.38379V9.37967V9.37555V9.37143V9.36732V9.3632V9.35908V9.35496V9.35084V9.34673V9.34261V9.33849V9.33437V9.33026V9.32614V9.32202V9.3179V9.31378V9.30967V9.30555V9.30143V9.29731V9.2932V9.28908V9.28496V9.28084V9.27672V9.27261V9.26849V9.26437V9.26025V9.25614V9.25202V9.2479V9.24378V9.23966V9.23555V9.23143V9.22731V9.22319V9.21908V9.21496V9.21084V9.20672V9.2026V9.19849V9.19437V9.19025V9.18613V9.18202V9.1779V9.17378V9.16966V9.16555V9.16143V9.15731V9.15319V9.14908V9.14496V9.14084V9.13672V9.1326V9.12849V9.12437V9.12025V9.11613V9.11202V9.1079V9.10378V9.09966V9.09555V9.09143V9.08731V9.08319V9.07907V9.07496V9.07084V9.06672V9.0626V9.05849V9.05437V9.05025V9.04613V9.04202V9.0379V9.03378V9.02966V9.02555V9.02143V9.01731V9.01319V9.00907V9.00496V9.00084V8.99672V8.9926V8.98849V8.98437V8.98025V8.97613V8.97202V8.9679V8.96378V8.95966V8.95555V8.95143V8.94731V8.94319V8.93907V8.93496V8.93084V8.92672V8.9226V8.91849V8.91437V8.91025V8.90613V8.90202V8.8979V8.89378V8.88966V8.88555V8.88143V8.87731V8.87319V8.86908V8.86496V8.86084V8.85672V8.8526V8.84849V8.84437V8.84025V8.83613V8.83202V8.8279V8.82378V8.81966V8.81555V8.81143V8.80731V8.80319V8.79908V8.79496V8.79084V8.78672V8.7826V8.77849V8.77437V8.77025V8.76613V8.76202V8.7579V8.75378V8.74966V8.74554V8.74143V8.73731V8.73319V8.72907V8.72496V8.72084V8.71672V8.7126V8.70849V8.70437V8.70025V8.69613V8.69201V8.6879V8.68378V8.67966V8.67554V8.67143V8.66731V8.66319V8.65907V8.65495V8.65084V8.64672V8.6426V8.63848V8.63437V8.63025V8.62613V8.62201V8.61789V8.61378V8.60966V8.60554V8.60142V8.59731V8.59319V8.58907V8.58495V8.58083V8.57672V8.5726V8.56848V8.56436V8.56024V8.55613V8.55201V8.54789V8.54377V8.53965V8.53554V8.53142V8.5273V8.52318V8.51906V8.51495V8.51083V8.50671V8.50259V8.49848V8.49436V8.49024V8.48612V8.482V8.47788V8.47377V8.46965V8.46553V8.46141V8.45729V8.45318V8.44906V8.44494V8.44082V8.4367V8.43259V8.42847V8.42435V8.42023V8.41611V8.412V8.40788V8.40376V8.39964V8.39552V8.3914V8.38729V8.38317V8.37905V8.37493V8.37081V8.3667V8.36258V8.35846V8.35434V8.35022V8.3461V8.34199V8.33787V8.33375V8.32963V8.32551V8.32139V8.31728V8.31316V8.30904V8.30492V8.3008V8.29668V8.29257V8.28845V8.28433V8.28021V8.27609V8.27197V8.26786V8.26374V8.25962V8.2555V8.25138V8.24726V8.24315V8.23903V8.23491V8.23079V8.22667V8.22255V8.21843V8.21432V8.2102V8.20608V8.20196V8.19784V8.19372V8.1896V8.18549V8.18137V8.17725V8.17313V8.16901V8.16489V8.16077V8.15665V8.15254V8.14842V8.1443V8.14018V8.13606V8.13194V8.12782V8.1237V8.11959V8.11547V8.11135V8.10723V8.10311V8.09899V8.09487V8.09075V8.08663V8.08252V8.0784V8.07428V8.07016V8.06604V8.06192V8.0578V8.05368V8.04956V8.04545V8.04133V8.03721V8.03309V8.02897V8.02485V8.02073V8.01661V8.01249V8.00837V8.00425V8.00014V7.99602V7.9919V7.98778V7.98366V7.97954V7.97542V7.9713V7.96718V7.96306V7.95894V7.95482V7.9507V7.94659V7.94247V7.93835V7.93423V7.93011V7.92599V7.92187C23.1773 7.90322 23.1775 7.8857 23.1777 7.86935C23.1611 7.86864 23.1435 7.86776 23.1246 7.86662L23.1245 7.86662C22.484 7.82785 21.8432 7.77047 21.2038 7.67692L21.2038 7.67691C18.5225 7.28397 16.0391 6.36401 13.7996 4.81248L13.7994 4.8123C13.7838 4.80145 13.7727 4.79501 13.7654 4.79126C13.7567 4.79569 13.7433 4.8035 13.7239 4.81702L13.7238 4.8171C12.2725 5.8266 10.6946 6.57502 9.00559 7.08495L9.00551 7.08497C7.49194 7.54139 5.94487 7.79573 4.36799 7.86439M23.1773 9.7804L4.36089 7.87483C4.3608 7.87132 4.36074 7.86796 4.36071 7.86475M23.1773 9.7804H23.1312L23.1225 10.0214C23.0481 12.084 22.9493 14.1394 22.7268 16.1842L22.7268 16.1842C22.5775 17.5579 22.3569 18.9137 22.0113 20.2496L22.2534 20.3122L22.0113 20.2496C21.5325 22.1007 20.4843 23.4573 18.7994 24.3686L18.7993 24.3687C18.5945 24.4795 18.3891 24.5901 18.1835 24.7009C16.9603 25.3597 15.727 26.024 14.5444 26.7769L14.5444 26.7769C14.2846 26.9424 14.0242 27.1085 13.7653 27.2777C12.6492 26.5258 11.4649 25.8735 10.2921 25.2275C9.70921 24.9064 9.12914 24.5869 8.56164 24.2575L8.56156 24.2574C7.60043 23.7 6.77912 23.0305 6.25258 22.0669C5.84268 21.3167 5.58034 20.5071 5.3804 19.6627C5.02849 18.1742 4.84954 16.6558 4.71551 15.1206C4.50548 12.7122 4.42011 10.2973 4.36089 7.87492L23.1773 9.7804ZM4.36799 7.86439L4.35712 7.61463L4.36822 7.86438C4.36814 7.86439 4.36807 7.86439 4.36799 7.86439ZM4.36799 7.86439C4.36549 7.86451 4.36306 7.86463 4.36071 7.86475M4.36071 7.86475C4.36057 7.85021 4.36094 7.83869 4.36159 7.82964C4.3624 7.81852 4.36351 7.81291 4.36388 7.8113C4.36421 7.80984 4.36347 7.81377 4.35996 7.82085C4.35624 7.82836 4.35024 7.83771 4.34142 7.84701C4.33261 7.8563 4.32362 7.86274 4.3164 7.86682C4.3096 7.87067 4.30575 7.87164 4.30715 7.87123C4.30869 7.87078 4.31404 7.86939 4.32475 7.86794C4.33392 7.86669 4.34569 7.86557 4.36071 7.86475ZM12.903 30.7205C11.3274 29.5824 9.62806 28.6532 7.92826 27.7237M12.903 30.7205L7.92826 27.7237M1.26084 4.84425C1.60293 4.49387 2.08837 4.31148 2.65633 4.3179L1.26084 4.84425ZM1.26084 4.84425C0.919559 5.19381 0.7454 5.68545 0.750093 6.25207L1.26084 4.84425ZM7.48513 3.79789C9.36136 3.30017 11.0569 2.45781 12.5519 1.22222L7.48513 3.79789ZM7.48513 3.79789C5.90912 4.21588 4.29647 4.33608 2.65639 4.31791L7.48513 3.79789ZM14.9502 1.20691C14.5827 0.905497 14.1723 0.746516 13.7498 0.750058M14.9502 1.20691L13.7498 0.750058M13.7498 0.750058C13.3277 0.753596 12.9185 0.919082 12.5519 1.22217L13.7498 0.750058ZM7.92826 27.7237C7.82451 27.6669 7.72076 27.6102 7.61703 27.5534L7.92826 27.7237Z" fill="white" stroke="white" stroke-width="0.5"/>
</svg>
